<?xml version="1.0" standalone="no"?>
<!DOCTYPE svg PUBLIC "-//W3C//DTD SVG 20010904//EN"
 "http://www.w3.org/TR/2001/REC-SVG-20010904/DTD/svg10.dtd">
<svg version="1.0" xmlns="http://www.w3.org/2000/svg"
 width="64.000000pt" height="64.000000pt" viewBox="0 0 64.000000 64.000000"
 preserveAspectRatio="xMidYMid meet">
<metadata>
Created by potrace 1.16, written by Peter Selinger 2001-2019
</metadata>
<g transform="translate(0.000000,64.000000) scale(0.100000,-0.100000)"
fill="#000000" stroke="none">
<path d="M240 627 c-91 -26 -173 -97 -213 -186 -29 -64 -29 -178 0 -243 30
-66 95 -133 162 -165 80 -39 182 -39 262 0 67 32 132 99 162 165 32 72 30 180
-6 253 -32 66 -100 132 -162 160 -57 25 -148 32 -205 16z m183 -37 c107 -40
187 -156 187 -270 0 -154 -136 -290 -290 -290 -114 0 -230 80 -270 187 -87
233 140 460 373 373z"/>
<path d="M209 535 c-85 -44 -129 -118 -129 -217 0 -136 102 -238 240 -238 138
0 240 102 240 240 0 101 -57 188 -147 225 -55 23 -149 18 -204 -10z m199 -11
c176 -73 176 -335 0 -408 -48 -20 -128 -20 -176 0 -173 72 -178 326 -7 405 49
23 133 24 183 3z"/>
<path d="M244 475 c-4 -8 -17 -15 -29 -15 -30 0 -45 -38 -21 -55 23 -17 23
-153 0 -170 -24 -17 -9 -55 21 -55 12 0 25 -7 29 -15 8 -21 52 -19 61 3 6 16
7 16 16 0 6 -10 18 -18 27 -18 10 0 25 8 34 18 9 9 27 25 41 34 32 23 42 62
23 99 -8 17 -12 43 -9 62 4 26 -2 40 -34 79 -40 50 -65 60 -82 31 -9 -17 -10
-17 -16 0 -9 21 -53 23 -61 2z m46 -20 c0 -8 9 -15 20 -15 11 0 23 7 26 15 7
16 24 21 24 6 0 -5 14 -23 30 -39 31 -31 37 -56 20 -82 -6 -10 -4 -20 7 -32 8
-10 16 -29 16 -43 0 -28 -28 -65 -49 -65 -7 0 -18 -8 -24 -17 -10 -17 -10 -17
-20 0 -13 21 -50 23 -50 2 0 -8 -7 -15 -15 -15 -8 0 -15 7 -15 15 0 9 -9 15
-24 15 -29 0 -42 15 -21 24 22 8 22 184 0 192 -21 9 -8 24 21 24 15 0 24 6 24
15 0 8 7 15 15 15 8 0 15 -7 15 -15z"/>
</g>
</svg>
